<?xml version="1.0" encoding="utf-8"?>
<!-- Generator: Adobe Illustrator 22.0.0, SVG Export Plug-In . SVG Version: 6.00 Build 0)  -->
<svg version="1.1" xmlns="http://www.w3.org/2000/svg" xmlns:xlink="http://www.w3.org/1999/xlink" x="0px" y="0px" width="1400px"
	 height="900px" viewBox="0 0 1400 900" enable-background="new 0 0 1400 900" xml:space="preserve">
<g id="BACKGROUND">
	<rect fill="#F9F9F9" width="1400" height="900"/>
</g>
<g id="OBJECTS">
	<linearGradient id="SVGID_1_" gradientUnits="userSpaceOnUse" x1="94" y1="632.8309" x2="312" y2="632.8309">
		<stop  offset="0" style="stop-color:#FF85A7"/>
		<stop  offset="1" style="stop-color:#FC00AD"/>
	</linearGradient>
	<path fill="url(#SVGID_1_)" d="M303.3,658.5H102.7c-4.8,0-8.7-3.9-8.7-8.7v-33.9c0-4.8,3.9-8.7,8.7-8.7h200.6
		c4.8,0,8.7,3.9,8.7,8.7v33.9C312,654.6,308.1,658.5,303.3,658.5z"/>
	<g>
		<g>
			
				<linearGradient id="SVGID_2_" gradientUnits="userSpaceOnUse" x1="765.4682" y1="499.5969" x2="1235.5604" y2="499.5969" gradientTransform="matrix(0.9956 -9.405028e-02 9.405028e-02 0.9956 -41.8615 97.7659)">
				<stop  offset="0" style="stop-color:#FFE0C3"/>
				<stop  offset="1" style="stop-color:#FC9CAD"/>
			</linearGradient>
			<path fill="url(#SVGID_2_)" d="M949.5,185.2c126.2,57.8,231.6,213,245.2,341.5c4.5,42.9,19.4,89.5,42,135.5
				c12.8,26,21.1,53.1,23.2,78.9c6,76.3-46.2,111.9-116.6,79.7c-31.8-14.7-61.7-40.1-85.9-70.7c-32.9-41.5-70.4-77.9-109.9-104.5
				c-102.8-69.1-188.2-201.6-199-319.3C736.3,191.9,826.3,128.8,949.5,185.2z"/>
		</g>
		<g>
			<g enable-background="new    ">
				<g>
					<path fill="#551F9E" d="M1093.2,773.9l-12.9,7.5c2-1.2,3.3-3.6,3.3-7.2l12.9-7.5C1096.4,770.3,1095.2,772.8,1093.2,773.9z"/>
				</g>
				<g>
					<path fill="#551F9E" d="M915.9,227.4l12.9-7.5c2-1.2,4.8-1,8,0.8l-12.9,7.5C920.8,226.4,917.9,226.2,915.9,227.4z"/>
				</g>
				<g>
					<polygon fill="#371466" points="1084.5,333.8 1097.4,326.3 1096.4,766.8 1083.5,774.3 					"/>
				</g>
				<g>
					<polygon fill="#6E39B8" points="923.9,228.2 936.8,220.6 1086.3,306.9 1073.4,314.5 					"/>
				</g>
				<g>
					<path fill="#4B2185" d="M1073.4,314.5c6.2,3.6,11.2,12.2,11.2,19.3l-1,440.5c0,7.1-5,10-11.2,6.4l-149.5-86.3
						c-6.2-3.6-11.2-12.2-11.2-19.3l1-440.5c0-7.1,5-10,11.2-6.4L1073.4,314.5z"/>
					<path fill="#E1E1FF" d="M929.3,683.1c-2.1-1.2-4.6-5.5-4.6-8l1-430.8l141.1,81.5c2.1,1.2,4.6,5.5,4.6,8l-1,430.8L929.3,683.1z"
						/>
					<g>
						<polygon fill="#4B2185" points="1028.8,301.6 1022.4,311.7 971.4,282.3 965.1,264.8 						"/>
					</g>
				</g>
				<g>
					<path fill="#551F9E" d="M1073.4,314.5l12.9-7.5c6.2,3.6,11.2,12.2,11.2,19.3l-12.9,7.5C1084.5,326.7,1079.5,318,1073.4,314.5z"
						/>
				</g>
			</g>
		</g>
		<g>
			<g enable-background="new    ">
				<g>
					<polygon fill="#D41591" points="848.1,353.9 868.3,342.2 883,340.9 862.9,352.6 					"/>
				</g>
				<g>
					<polygon fill="#BA127F" points="918.4,421.6 938.6,409.9 938.5,429.4 918.3,441.2 					"/>
				</g>
				<g>
					<path fill="#D41591" d="M892.2,340.8l20.2-11.7c-3.6,2.1-5.8,6.5-5.8,12.8c0,12.6,8.8,28,19.8,34.3l-20.2,11.7
						c-11-6.3-19.9-21.7-19.8-34.3C886.5,347.3,888.7,342.9,892.2,340.8z"/>
				</g>
				<g>
					<path fill="#D41591" d="M940.6,377.6l-20.2,11.7c-3.6,2.1-8.6,1.8-14.2-1.4l20.2-11.7C932,379.4,937,379.7,940.6,377.6z"/>
				</g>
				<g>
					<polygon fill="#BA127F" points="860.5,291.9 880.7,280.1 895.4,298.4 875.2,310.1 					"/>
				</g>
				<g>
					<polygon fill="#D41591" points="958.3,429.6 978.5,417.9 972.3,426.5 952.2,438.3 					"/>
				</g>
				<g>
					<path fill="#D41591" d="M875.2,310.1l20.2-11.7c5.3-2.8,11.8-3.5,19.1-1.7l-20.2,11.7C887,306.6,880.5,307.3,875.2,310.1z"/>
				</g>
				<g>
					<polygon fill="#D41591" points="962.8,423.2 983,411.5 978.5,417.9 958.3,429.6 					"/>
				</g>
				<g>
					<polygon fill="#D41591" points="964.4,421 984.6,409.3 983,411.5 962.8,423.2 					"/>
				</g>
				<g>
					<polygon fill="#BA127F" points="949.7,402.8 969.9,391 984.6,409.3 964.4,421 					"/>
				</g>
				<g>
					<path fill="#D41591" d="M951.1,390.9l20.2-11.7c0,4.4-0.5,8.3-1.4,11.9l-20.2,11.7C950.6,399.2,951.1,395.3,951.1,390.9z"/>
				</g>
				<g>
					<polygon fill="#D41591" points="894.3,288.9 914.5,277.2 917.6,279 897.4,290.7 					"/>
				</g>
				<g>
					<path fill="#D41591" d="M949.8,377.5l20.2-11.7c0.9,4.6,1.3,9.1,1.3,13.4l-20.2,11.7C951.1,386.6,950.7,382.1,949.8,377.5z"/>
				</g>
				<g>
					<path fill="#D41591" d="M918.7,322.5l20.2-11.7c7.3,6.6,13.8,14.7,19,23.6l-20.2,11.7C932.4,337.3,925.9,329.1,918.7,322.5z"/>
				</g>
				<g>
					<polygon fill="#D41591" points="897.4,290.7 917.6,279 935.8,289.5 915.6,301.2 					"/>
				</g>
				<g>
					<polygon fill="#BA127F" points="918.7,303 938.9,291.3 938.8,310.8 918.7,322.5 					"/>
				</g>
				<g>
					<polygon fill="#D41591" points="915.6,301.2 935.8,289.5 938.9,291.3 918.7,303 					"/>
				</g>
				<g>
					<polygon fill="#D41591" points="963,372.2 983.2,360.5 984.7,364.5 964.5,376.2 					"/>
				</g>
				<g>
					<polygon fill="#D41591" points="958.5,360.6 978.7,348.8 983.2,360.5 963,372.2 					"/>
				</g>
				<g>
					<polygon fill="#BA127F" points="937.7,346.2 957.8,334.5 972.6,333.2 952.4,344.9 					"/>
				</g>
				<g>
					<polygon fill="#D41591" points="952.4,344.9 972.6,333.2 978.7,348.8 958.5,360.6 					"/>
				</g>
				<g>
					<path fill="#FC35B7" d="M951.1,390.9c0,4.4-0.5,8.3-1.4,11.9l14.7,18.3l-1.6,2.2l-4.6,6.4l-6.1,8.6L937.4,420
						c-5.3,2.8-11.8,3.5-19.1,1.7l-0.1,19.5l-3.1-1.8l-18.1-10.5l-3.1-1.8l0.1-19.5c-7.3-6.5-13.8-14.7-19-23.6l-14.8,1.3l-6.1-15.7
						l-4.5-11.6l-1.6-4l14.7-1.3c-0.9-4.6-1.3-9.1-1.3-13.4c0-4.4,0.5-8.3,1.4-11.9l-14.7-18.3l1.6-2.2l4.6-6.4l6.1-8.6l14.7,18.3
						c5.3-2.8,11.8-3.5,19.1-1.7l0.1-19.5l3.1,1.8l18.1,10.5l3.1,1.8l-0.1,19.5c7.3,6.6,13.8,14.7,19,23.6l14.8-1.3l6.1,15.7
						l4.5,11.6l1.6,4l-14.7,1.3C950.7,382.1,951.1,386.6,951.1,390.9z M906.3,387.9c11,6.3,19.9,1.2,20-11.4
						c0-12.6-8.8-28-19.8-34.3c-11-6.3-19.9-1.3-20,11.4C886.4,366.2,895.3,381.6,906.3,387.9"/>
				</g>
			</g>
		</g>
		<g>
			<g enable-background="new    ">
				<g>
					<polygon fill="#D41591" points="895.8,492 909.6,484 919.6,483.1 905.9,491.1 					"/>
				</g>
				<g>
					<polygon fill="#BA127F" points="943.7,538.1 957.4,530.1 957.4,543.4 943.6,551.4 					"/>
				</g>
				<g>
					<path fill="#D41591" d="M925.9,483.1l13.7-8c-2.4,1.4-3.9,4.4-3.9,8.7c0,8.6,6,19.1,13.5,23.4l-13.7,8
						c-7.5-4.3-13.5-14.8-13.5-23.4C921.9,487.5,923.5,484.5,925.9,483.1z"/>
				</g>
				<g>
					<path fill="#D41591" d="M958.8,508.1l-13.7,8c-2.5,1.4-5.9,1.2-9.6-0.9l13.7-8C952.9,509.3,956.3,509.5,958.8,508.1z"/>
				</g>
				<g>
					<polygon fill="#BA127F" points="904.3,449.8 918,441.8 928,454.2 914.3,462.2 					"/>
				</g>
				<g>
					<polygon fill="#D41591" points="970.8,543.5 984.6,535.6 980.4,541.4 966.7,549.4 					"/>
				</g>
				<g>
					<path fill="#D41591" d="M914.3,462.2l13.7-8c3.6-1.9,8-2.4,13-1.1l-13.7,8C922.3,459.8,917.9,460.3,914.3,462.2z"/>
				</g>
				<g>
					<polygon fill="#D41591" points="973.9,539.2 987.7,531.2 984.6,535.6 970.8,543.5 					"/>
				</g>
				<g>
					<polygon fill="#D41591" points="975,537.7 988.8,529.7 987.7,531.2 973.9,539.2 					"/>
				</g>
				<g>
					<polygon fill="#BA127F" points="965,525.3 978.8,517.3 988.8,529.7 975,537.7 					"/>
				</g>
				<g>
					<path fill="#D41591" d="M966,517.2l13.7-8c0,3-0.3,5.7-1,8.1l-13.7,8C965.6,522.9,966,520.2,966,517.2z"/>
				</g>
				<g>
					<polygon fill="#D41591" points="927.3,447.8 941.1,439.8 943.2,441 929.4,449 					"/>
				</g>
				<g>
					<path fill="#D41591" d="M965.1,508l13.7-8c0.6,3.1,0.9,6.2,0.9,9.1l-13.7,8C966,514.2,965.7,511.1,965.1,508z"/>
				</g>
				<g>
					<path fill="#D41591" d="M943.9,470.6l13.7-8c4.9,4.5,9.4,10,12.9,16.1l-13.7,8C953.2,480.7,948.8,475.1,943.9,470.6z"/>
				</g>
				<g>
					<polygon fill="#D41591" points="929.4,449 943.2,441 955.5,448.1 941.8,456.1 					"/>
				</g>
				<g>
					<polygon fill="#BA127F" points="943.9,457.4 957.6,449.4 957.6,462.7 943.9,470.6 					"/>
				</g>
				<g>
					<polygon fill="#D41591" points="941.8,456.1 955.5,448.1 957.6,449.4 943.9,457.4 					"/>
				</g>
				<g>
					<polygon fill="#D41591" points="974,504.5 987.8,496.5 988.8,499.2 975.1,507.2 					"/>
				</g>
				<g>
					<polygon fill="#D41591" points="971,496.5 984.7,488.5 987.8,496.5 974,504.5 					"/>
				</g>
				<g>
					<polygon fill="#BA127F" points="956.8,486.7 970.5,478.8 980.6,477.9 966.9,485.9 					"/>
				</g>
				<g>
					<polygon fill="#D41591" points="966.9,485.9 980.6,477.9 984.7,488.5 971,496.5 					"/>
				</g>
				<g>
					<path fill="#FC35B7" d="M966,517.2c0,3-0.3,5.7-1,8.1l10,12.4l-1.1,1.5l-3.1,4.4l-4.2,5.9l-10-12.4c-3.6,1.9-8,2.4-13,1.1
						l0,13.3l-2.1-1.2l-12.4-7.1l-2.1-1.2l0-13.3c-4.9-4.5-9.4-10-12.9-16.1l-10,0.9l-4.1-10.7l-3.1-7.9l-1.1-2.7l10-0.9
						c-0.6-3.1-0.9-6.2-0.9-9.1c0-3,0.3-5.7,1-8.1l-10-12.4l1.1-1.5l3.1-4.4l4.2-5.9l10,12.4c3.6-1.9,8-2.4,13-1.1l0-13.3l2.1,1.2
						l12.4,7.1l2.1,1.2l0,13.3c4.9,4.5,9.4,10,12.9,16.1l10-0.9l4.1,10.7l3.1,7.9l1.1,2.7l-10,0.9C965.7,511.1,966,514.2,966,517.2z
						 M935.4,515.1c7.5,4.3,13.6,0.8,13.6-7.7c0-8.6-6-19.1-13.5-23.4c-7.5-4.3-13.6-0.9-13.6,7.7
						C921.9,500.4,928,510.8,935.4,515.1"/>
				</g>
			</g>
		</g>
		<g>
			<g enable-background="new    ">
				<g>
					<polygon fill="#FF4D77" points="1057,697.4 1075.7,686.6 1069.9,683.2 1051.3,694.1 					"/>
				</g>
				<g>
					<polygon fill="#E33D65" points="1074.5,707.5 1093.1,696.6 1075.7,686.6 1057,697.4 					"/>
				</g>
				<g>
					<polygon fill="#E33D65" points="1051.3,694.1 1051,791.9 1080,808.6 1080.2,710.8 1074.5,707.5 1057,697.4 					"/>
				</g>
				<g>
					<polygon fill="#C73558" points="1080,808.6 1098.6,797.8 1098.9,700 1080.2,710.8 					"/>
				</g>
				<g>
					<polygon fill="#FF4D77" points="1080.2,710.8 1098.9,700 1093.1,696.6 1074.5,707.5 					"/>
				</g>
			</g>
			<g enable-background="new    ">
				<g>
					<path fill="#371466" d="M1075.8,644.9c-3.1,1.8-6.2,3.6-9.3,5.4c-1.6,0.9-3.2,1.9-4.8,2.8c-1.5,0.9-3,1.7-4.5,2.6
						c2.8,2.1,5.7,4.1,8.7,5.8l18.6-10.8C1081.5,649,1078.6,647,1075.8,644.9z"/>
				</g>
				<g>
					<path fill="#541E9C" d="M1065.9,661.5c-3-1.7-5.9-3.6-8.7-5.8l-0.1,41.7l17.4,10.1l0.1-41.7
						C1071.7,664.6,1068.8,663.2,1065.9,661.5z"/>
				</g>
				<g>
					<polygon fill="#371466" points="1074.5,707.5 1093.1,696.6 1093.2,655 1074.6,665.8 					"/>
				</g>
				<g>
					<path fill="#371466" d="M1093.2,655c-2.8-1.1-5.7-2.6-8.7-4.3c-5.5,3.2-11,6.4-16.5,9.6l-2.2,1.3c3,1.7,5.9,3.1,8.7,4.3
						C1080.8,662.2,1087,658.6,1093.2,655z"/>
				</g>
				<g>
					<polygon fill="#371466" points="1066.4,644.6 1085.1,633.7 1084,633.1 1065.4,644 					"/>
				</g>
				<g>
					<path fill="#371466" d="M1065.4,644c0.2,0.1,0.4,0.2,0.5,0.3c0.2,0.1,0.4,0.2,0.5,0.3L1065.4,644z"/>
				</g>
				<g>
					<path fill="#E65C73" d="M1054.9,533.9l-18.6,10.8c-7.5,4.4-12.2,13.7-12.3,27c-0.1,26.5,18.4,58.7,41.4,72.3l18.6-10.8
						c-23-13.6-41.4-45.8-41.4-72.3C1042.7,547.6,1047.4,538.3,1054.9,533.9z"/>
				</g>
				<g>
					<path fill="#E65C73" d="M1095.8,647.2l18.6-10.8c-7.5,4.4-17.9,3.8-29.4-2.6c-0.2-0.1-0.4-0.2-0.5-0.3
						c-0.2-0.1-0.4-0.2-0.5-0.3l-18.6,10.8c0.2,0.1,0.4,0.2,0.5,0.3c0.2,0.1,0.4,0.2,0.5,0.3C1077.9,651,1088.3,651.6,1095.8,647.2z
						"/>
				</g>
				<g>
					<path fill="#E65C73" d="M1044.3,515.6l-18.6,10.8c10.4-6,24.7-5.2,40.6,4l18.6-10.8C1069,510.4,1054.7,509.6,1044.3,515.6z"/>
				</g>
				<g>
					<path fill="#E65C73" d="M1106.5,665.5l18.6-10.8c10.2-5.9,16.6-18.6,16.6-36.6c0.1-36.2-25.4-80.3-56.9-98.5l-18.6,10.8
						c31.5,18.2,57,62.3,56.9,98.5C1123,646.9,1116.7,659.5,1106.5,665.5z"/>
				</g>
				<g>
					<path fill="#FC7E93" d="M1123.1,628.9c-0.1,32.8-21.1,47.9-48.5,36.9c-2.8-1.1-5.7-2.6-8.7-4.3c-3-1.7-5.9-3.6-8.7-5.8
						c-27.4-20.6-48.2-59.9-48.2-92.7c0.1-36.2,25.7-50.8,57.2-32.6C1097.7,548.6,1123.2,592.7,1123.1,628.9z M1065.4,644
						c0.2,0.1,0.4,0.2,0.5,0.3c0.2,0.1,0.4,0.2,0.5,0.3c23,12.9,41.6,2.1,41.6-24.3c0.1-26.7-18.7-59.2-41.9-72.6
						c-23.2-13.4-42.1-2.6-42.2,24C1023.9,598.2,1042.4,630.4,1065.4,644"/>
				</g>
			</g>
		</g>
		<g>
			<g>
				<g>
					<g>
						<polygon fill="#A1A1E6" points="1137.5,576 1159.2,563.3 1178.7,546.4 1156.9,559 						"/>
						<path fill="#A1A1E6" d="M1235,465.7l-83-47.9c-5.7-3.3-10.9-3.6-14.6-1.4l-21.7,12.6c3.7-2.2,8.9-1.9,14.6,1.4l83,47.9
							c11.4,6.6,20.5,22.5,20.5,35.5l-0.2,65.8c0,6.5-2.3,11-6,13.2l21.7-12.6c3.7-2.1,6-6.7,6-13.2l0.2-65.8
							C1255.5,488.2,1246.4,472.3,1235,465.7z"/>
					</g>
				</g>
				<g>
					<path fill="#E1E1FF" d="M1213.3,478.3c11.4,6.6,20.5,22.5,20.5,35.5l-0.2,65.8c0,13-9.3,18.3-20.6,11.8l-56-32.3l-19.4,16.9
						l0.1-28.1l-7.7-4.4c-11.4-6.6-20.5-22.4-20.5-35.5l0.2-65.8c0-13,9.3-18.3,20.6-11.8L1213.3,478.3z"/>
				</g>
			</g>
			<g>
				<g>
					<g enable-background="new    ">
						<g>
							<path fill="#A1A1E6" d="M1134.6,482.1l1.9-1.1c1.1-0.6,2.5-0.5,4.1,0.4l-1.9,1.1C1137.1,481.5,1135.7,481.4,1134.6,482.1z"/>
						</g>
						<g>
							<path fill="#A1A1E6" d="M1144.7,495l-1.9,1.1c1-0.6,1.7-1.9,1.7-3.7c0-3.7-2.6-8.1-5.8-10l1.9-1.1c3.2,1.8,5.8,6.3,5.8,10
								C1146.4,493.1,1145.7,494.4,1144.7,495z"/>
						</g>
						<g>
							<path fill="#AFAFE6" d="M1138.7,482.5c3.2,1.8,5.8,6.3,5.8,10c0,3.7-2.6,5.1-5.8,3.3c-3.2-1.8-5.8-6.3-5.8-10
								C1132.9,482.1,1135.5,480.6,1138.7,482.5z"/>
						</g>
					</g>
				</g>
				<g>
					<g enable-background="new    ">
						<g>
							<path fill="#A1A1E6" d="M1151.2,493.5l1.9-1.1c1.1-0.6,2.5-0.5,4.1,0.4l-1.9,1.1C1153.7,493,1152.3,492.9,1151.2,493.5z"/>
						</g>
						<g>
							<path fill="#A1A1E6" d="M1161.3,506.5l-1.9,1.1c1-0.6,1.7-1.9,1.7-3.7c0-3.7-2.6-8.1-5.8-10l1.9-1.1c3.2,1.8,5.8,6.3,5.8,10
								C1163,504.6,1162.4,505.9,1161.3,506.5z"/>
						</g>
						<g>
							<path fill="#AFAFE6" d="M1155.3,493.9c3.2,1.8,5.8,6.3,5.8,10s-2.6,5.1-5.8,3.3c-3.2-1.8-5.8-6.3-5.8-10
								S1152.1,492.1,1155.3,493.9z"/>
						</g>
					</g>
				</g>
				<g>
					<g enable-background="new    ">
						<g>
							<path fill="#A1A1E6" d="M1167.8,505l1.9-1.1c1.1-0.6,2.5-0.5,4.1,0.4l-1.9,1.1C1170.3,504.4,1168.9,504.4,1167.8,505z"/>
						</g>
						<g>
							<path fill="#A1A1E6" d="M1177.9,517.9l-1.9,1.1c1-0.6,1.7-1.9,1.7-3.7c0-3.7-2.6-8.1-5.8-10l1.9-1.1c3.2,1.8,5.8,6.3,5.8,10
								C1179.6,516.1,1179,517.3,1177.9,517.9z"/>
						</g>
						<g>
							<path fill="#AFAFE6" d="M1171.9,505.4c3.2,1.8,5.8,6.3,5.8,10s-2.6,5.1-5.8,3.3c-3.2-1.8-5.8-6.3-5.8-10
								S1168.7,503.5,1171.9,505.4z"/>
						</g>
					</g>
				</g>
				<g>
					<g enable-background="new    ">
						<g>
							<path fill="#A1A1E6" d="M1184.4,516.4l1.9-1.1c1.1-0.6,2.5-0.5,4.1,0.4l-1.9,1.1C1186.9,515.9,1185.5,515.8,1184.4,516.4z"/>
						</g>
						<g>
							<path fill="#A1A1E6" d="M1194.5,529.4l-1.9,1.1c1-0.6,1.7-1.9,1.7-3.7c0-3.7-2.6-8.1-5.8-10l1.9-1.1c3.2,1.8,5.8,6.3,5.8,10
								C1196.2,527.5,1195.6,528.8,1194.5,529.4z"/>
						</g>
						<g>
							<path fill="#AFAFE6" d="M1188.5,516.8c3.2,1.8,5.8,6.3,5.8,10s-2.6,5.1-5.8,3.3c-3.2-1.8-5.8-6.3-5.8-10
								S1185.4,515,1188.5,516.8z"/>
						</g>
					</g>
				</g>
			</g>
		</g>
		<g>
			<g>
				<path fill="#6032A1" d="M1047.4,231.4l-13.1,7.6c1.4-0.8,3.3-0.7,5.4,0.5l6.4,3.7l13.1-7.6l-6.4-3.7
					C1050.7,230.8,1048.8,230.6,1047.4,231.4z"/>
				<path fill="#6032A1" d="M1211.1,323.4l-5.3-3.1c1.5-2.6,2.3-6,2.3-10.1c0-14.5-10.2-32.2-22.8-39.4c-6.3-3.7-12.1-4-16.3-1.6
					l-8.3,4.8c-1.1-0.9-2.2-1.7-3.4-2.4c-1-0.6-1.9-1-2.8-1.3c0.4-2.3,0.7-4.9,0.7-7.6c0.1-23.9-16.7-53-37.5-65
					c-10.5-6-20-6.6-26.8-2.6l-12.9,7.5c-5.7-2.4-10.8-2.2-14.7,0l-13.1,7.6c4.7-2.7,11.2-2.3,18.3,1.8c0.3,0.2,0.6,0.4,0.9,0.6
					l13.1-7.6c-0.3-0.2-0.6-0.4-0.9-0.6c-1.2-0.7-2.4-1.3-3.6-1.8c6.8-3.9,16.3-3.3,26.6,2.7c20.8,12,37.6,41.1,37.5,65
					c0,2.7-0.2,5.3-0.7,7.6c0.9,0.3,1.8,0.8,2.8,1.3c2.1,1.2,4.2,2.9,6.1,4.9l13.1-7.6c-0.4-0.4-0.8-0.9-1.3-1.3c3,0,6.4,1.1,10,3.1
					c12.6,7.3,22.8,24.9,22.8,39.4c0,4.1-0.8,7.5-2.3,10.1l5.3,3.1c4.2,2.4,7.5,8.3,7.5,13c0,2.4-0.8,4.1-2.2,4.8l13.1-7.6
					c1.4-0.8,2.2-2.5,2.2-4.8C1218.6,331.6,1215.3,325.8,1211.1,323.4z"/>
				<g>
					<path fill="#6E39B8" d="M1104.7,205.2c20.8,12,37.6,41.1,37.5,65c0,2.7-0.2,5.3-0.7,7.6c0.9,0.3,1.8,0.8,2.8,1.3
						c2.1,1.2,4.2,2.9,6.1,4.9c3-8.9,11.6-11.6,21.8-5.7c12.6,7.3,22.8,24.9,22.8,39.4c0,4.1-0.8,7.5-2.3,10.1l5.3,3.1
						c4.2,2.4,7.5,8.3,7.5,13c0,4.8-3.4,6.7-7.6,4.3l-158.3-91.4c-4.2-2.4-7.5-8.2-7.5-13c0-4.8,3.4-6.7,7.6-4.3l6.4,3.7
						c-2.1-5.6-3.4-11.3-3.4-16.7c0-16.3,11.6-22.9,25.8-14.7c0.3,0.2,0.6,0.4,0.9,0.6C1075,199.6,1088.7,196,1104.7,205.2z"/>
				</g>
			</g>
		</g>
		<g>
			<g>
				<path fill="#6032A1" d="M741,405.4l-10.3,6c1.1-0.6,2.6-0.5,4.3,0.4l5.1,2.9l10.3-6l-5.1-2.9C743.6,404.8,742.1,404.7,741,405.4
					z"/>
				<path fill="#6032A1" d="M870.6,478.1l-4.2-2.4c1.2-2.1,1.8-4.8,1.8-8c0-11.5-8-25.5-18-31.2c-5-2.9-9.6-3.2-12.9-1.3l-6.5,3.8
					c-0.9-0.7-1.8-1.4-2.7-1.9c-0.8-0.4-1.5-0.8-2.2-1c0.3-1.9,0.5-3.9,0.5-6c0.1-18.9-13.3-42-29.7-51.5
					c-8.3-4.8-15.8-5.2-21.2-2.1l-10.2,5.9c-4.5-1.9-8.5-1.8-11.6,0l-10.3,6c3.7-2.2,8.8-1.8,14.5,1.4c0.2,0.1,0.5,0.3,0.7,0.4
					l10.3-6c-0.2-0.2-0.5-0.3-0.7-0.4c-1-0.6-1.9-1-2.9-1.4c5.4-3.1,12.9-2.6,21.1,2.1c16.5,9.5,29.8,32.6,29.7,51.5
					c0,2.2-0.2,4.2-0.5,6c0.7,0.3,1.5,0.6,2.2,1c1.7,1,3.3,2.3,4.8,3.9l10.3-6c-0.3-0.3-0.7-0.7-1-1c2.4,0,5.1,0.8,7.9,2.5
					c10,5.8,18.1,19.7,18,31.2c0,3.2-0.7,5.9-1.8,8l4.2,2.4c3.3,1.9,6,6.5,6,10.3c0,1.9-0.7,3.2-1.7,3.8l10.3-6
					c1.1-0.6,1.7-1.9,1.7-3.8C876.6,484.7,873.9,480,870.6,478.1z"/>
				<g>
					<path fill="#6E39B8" d="M786.4,384.6c16.5,9.5,29.8,32.6,29.7,51.5c0,2.2-0.2,4.2-0.5,6c0.7,0.3,1.5,0.6,2.2,1
						c1.7,1,3.3,2.3,4.8,3.9c2.3-7.1,9.2-9.2,17.3-4.5c10,5.8,18.1,19.7,18,31.2c0,3.2-0.7,5.9-1.8,8l4.2,2.4c3.3,1.9,6,6.5,6,10.3
						s-2.7,5.3-6,3.4l-125.3-72.4c-3.3-1.9-6-6.5-6-10.3s2.7-5.3,6-3.4l5.1,2.9c-1.7-4.4-2.7-8.9-2.7-13.2
						c0-12.9,9.2-18.1,20.4-11.6c0.2,0.1,0.5,0.3,0.7,0.4C762.9,380.1,773.7,377.3,786.4,384.6z"/>
				</g>
			</g>
		</g>
		<g>
			<path fill="#E1E1FF" d="M758.9,240.5c13.9,8,25.1,27.5,25.1,43.5c0,1.8-0.2,3.5-0.4,5.1c0.6,0.2,1.2,0.5,1.9,0.9
				c1.4,0.8,2.8,2,4,3.3c2-6,7.8-7.8,14.6-3.8c8.4,4.9,15.2,16.7,15.2,26.4c0,2.7-0.6,5-1.5,6.7l3.5,2c2.8,1.6,5,5.5,5,8.7
				c0,3.2-2.3,4.5-5.1,2.9L715.5,275c-2.8-1.6-5-5.5-5-8.7c0-3.2,2.3-4.5,5.1-2.9l4.3,2.5c-1.4-3.7-2.3-7.6-2.2-11.1
				c0-10.9,7.8-15.3,17.2-9.8c0.2,0.1,0.4,0.2,0.6,0.4C739.2,236.7,748.3,234.4,758.9,240.5z"/>
		</g>
		<g>
			<path fill="#E1E1FF" d="M1245.6,207.3c13.9,8,25.1,27.5,25.1,43.5c0,1.8-0.2,3.5-0.4,5.1c0.6,0.2,1.2,0.5,1.9,0.9
				c1.4,0.8,2.8,2,4,3.3c2-6,7.8-7.8,14.6-3.8c8.4,4.9,15.2,16.7,15.2,26.4c0,2.7-0.6,5-1.5,6.7l3.5,2c2.8,1.6,5,5.5,5,8.7
				c0,3.2-2.3,4.5-5.1,2.9l-105.8-61.1c-2.8-1.6-5-5.5-5-8.7c0-3.2,2.3-4.5,5.1-2.9l4.3,2.5c-1.4-3.7-2.3-7.6-2.2-11.1
				c0-10.9,7.8-15.3,17.2-9.8c0.2,0.1,0.4,0.2,0.6,0.4C1225.8,203.5,1234.9,201.1,1245.6,207.3z"/>
		</g>
		<g>
			<path fill="#E1E1FF" d="M1191.3,645.7c15.2,8.8,27.5,30.1,27.4,47.5c0,2-0.2,3.8-0.5,5.6c0.7,0.2,1.3,0.6,2,1
				c1.6,0.9,3.1,2.1,4.4,3.6c2.2-6.5,8.5-8.5,16-4.2c9.2,5.3,16.7,18.2,16.6,28.8c0,3-0.6,5.5-1.7,7.4l3.9,2.2c3,1.8,5.5,6,5.5,9.5
				c0,3.5-2.5,4.9-5.5,3.2l-115.7-66.8c-3-1.8-5.5-6-5.5-9.5s2.5-4.9,5.5-3.2l4.7,2.7c-1.6-4.1-2.5-8.3-2.5-12.2
				c0-11.9,8.5-16.7,18.9-10.7c0.2,0.1,0.4,0.3,0.7,0.4C1169.7,641.6,1179.6,639,1191.3,645.7z"/>
		</g>
		<g>
			<path fill="#E1E1FF" d="M832.4,518.3c9.8,5.6,17.7,19.3,17.6,30.6c0,1.3-0.1,2.5-0.3,3.6c0.4,0.2,0.9,0.4,1.3,0.6
				c1,0.6,2,1.4,2.8,2.3c1.4-4.2,5.5-5.5,10.3-2.7c5.9,3.4,10.7,11.7,10.7,18.5c0,1.9-0.4,3.5-1.1,4.7l2.5,1.4
				c2,1.1,3.5,3.9,3.5,6.1c0,2.3-1.6,3.2-3.6,2l-74.4-43c-2-1.1-3.5-3.9-3.5-6.1c0-2.3,1.6-3.2,3.6-2l3,1.7c-1-2.6-1.6-5.3-1.6-7.8
				c0-7.7,5.5-10.8,12.1-6.9c0.1,0.1,0.3,0.2,0.4,0.3C818.5,515.6,824.9,513.9,832.4,518.3z"/>
		</g>
		<g>
			<g>
				<g enable-background="new    ">
					<g>
						<path fill="#DB586E" d="M830.3,614.7l18.7-10.8c10.2-5.9,24.4-5.1,40,3.9l-18.7,10.8C854.7,609.6,840.6,608.8,830.3,614.7z"/>
					</g>
					<g>
						<path fill="#E65C73" d="M928.7,741.1l-18.7,10.8c10.1-5.9,16.4-18.3,16.4-36.1c0.1-35.7-25-79.3-56.1-97.2l18.7-10.8
							c31.1,18,56.2,61.5,56.1,97.2C945.1,722.8,938.8,735.2,928.7,741.1z"/>
					</g>
					<g>
						<path fill="#FC7E93" d="M870.4,618.6c31.1,18,56.2,61.5,56.1,97.2c-0.1,35.7-25.4,50.1-56.5,32.2
							c-31.1-17.9-56.2-61.4-56.1-97.1C814,615.1,839.3,600.7,870.4,618.6z"/>
						<path fill="#FC9CAD" d="M895.3,748.2c-6.5,0-13.9-2.3-21.5-6.7c-13.9-8-27-21.9-37-39.1c-9.9-17.2-15.4-35.5-15.4-51.5
							c0.1-20.3,8.9-32.4,23.7-32.4c6.4,0,13.9,2.3,21.5,6.7c13.9,8,27.1,21.9,37,39.2c9.9,17.2,15.4,35.5,15.4,51.5
							C918.9,736.1,910.1,748.2,895.3,748.2z"/>
					</g>
				</g>
			</g>
			<g>
				<path fill="#DB586E" d="M877.9,644.5l0,8.2c7,5.3,13.4,12,17.1,22.9l-8.9-0.4c-2.1-5.3-8.2-12-13.9-15.2
					c-6.8-3.9-13.1-5.3-13.1,1.3c0,6.3,6.5,11.1,13.4,16.1c12,8.7,24.9,18.5,24.8,35.2c0,12.8-9.4,14.6-19.6,9.6l0,9.5l-10.5-6l0-9
					c-9.2-6.3-17.8-16-21.6-28.7l9.7,0.9c2.2,7.4,9.5,15.5,16.4,19.4c7.4,4.3,14.3,5.3,14.3-2.1c0-6.3-6.8-12.5-14.5-17.9
					c-11.8-8.3-23.3-17.3-23.3-33.1c0-12.4,9.6-12.6,19.2-8.4l0-8.2L877.9,644.5z"/>
			</g>
		</g>
	</g>
</g>
<g id="TEXT">
	<text transform="matrix(1 0 0 1 94.0005 333.2171)"><tspan x="0" y="0" fill="#6E39B8" font-family="'OpenSans-Bold'" font-size="65.9967px">Business</tspan><tspan x="0" y="79.2" fill="#6E39B8" font-family="'OpenSans-Light'" font-size="65.9967px">Marketing Tool</tspan></text>
	<rect x="94" y="467.6" fill="none" width="562.8" height="134.7"/>
	<text transform="matrix(1 0 0 1 94 482.0796)"><tspan x="0" y="0" fill="#6E39B8" font-family="'OpenSans-Regular'" font-size="19px">Lorem ipsum dolor sit amet, consectetuer adipiscing elit, sed </tspan><tspan x="0" y="22.8" fill="#6E39B8" font-family="'OpenSans-Regular'" font-size="19px">diam nonummy nibh euismod tincidunt ut laoreet dolore </tspan><tspan x="0" y="45.6" fill="#6E39B8" font-family="'OpenSans-Regular'" font-size="19px">magna aliquam erat volutpat. Ut wisi enim ad minim veniam, </tspan><tspan x="0" y="68.4" fill="#6E39B8" font-family="'OpenSans-Regular'" font-size="19px">quis nostrud exerci tation ullamcorper suscipit lobortis </tspan></text>
	<text transform="matrix(1 0 0 1 126.5508 640.8123)" fill="#FFFFFF" font-family="'OpenSans-Regular'" font-size="24.1231px">GET STARTED</text>
	<text transform="matrix(1 0 0 1 741.7266 122.511)" fill="#6E39B8" font-family="'OpenSans-SemiBold'" font-size="17.1672px">HOME</text>
	<text transform="matrix(1 0 0 1 888.4365 122.511)" fill="#6E39B8" font-family="'OpenSans-SemiBold'" font-size="17.1672px">ABOUT US</text>
	<text transform="matrix(1 0 0 1 1040.3262 122.511)" fill="#6E39B8" font-family="'OpenSans-SemiBold'" font-size="17.1672px">PORTFOLIO</text>
	<text transform="matrix(1 0 0 1 1190.1445 122.511)" fill="#6E39B8" font-family="'OpenSans-SemiBold'" font-size="17.1672px">CONTACT US</text>
	<text transform="matrix(1 0 0 1 94.0005 125.9919)" fill="#FC0DAC" font-family="'OpenSans-Bold'" font-size="29.4103px">LOGO HERE</text>
</g>
</svg>
